<?xml version="1.0" encoding="iso-8859-1"?>
<!-- Generator: Adobe Illustrator 19.0.0, SVG Export Plug-In . SVG Version: 6.00 Build 0)  -->
<svg version="1.1" id="Capa_1" xmlns="http://www.w3.org/2000/svg" xmlns:xlink="http://www.w3.org/1999/xlink" x="0px" y="0px"
	 viewBox="0 0 496 496" style="enable-background:new 0 0 496 496;" xml:space="preserve">
<path style="fill:#FEA82F;" d="M296,64H24L8,88v344c0,30.928,68.056,56,152,56s152-25.072,152-56V88L296,64z"/>
<g>
	<path style="fill:#FF8031;" d="M192,232c-26.512,0-48,21.488-48,48v168c0,16.64,8.472,31.288,21.328,39.904
		C246.784,486.856,312,462.264,312,432V232H192z"/>
	<path style="fill:#FF8031;" d="M296,64h-24l16,24v344c0,29.432-61.68,53.52-140,55.776c3.968,0.112,7.952,0.224,12,0.224
		c83.944,0,152-25.072,152-56V88L296,64z"/>
</g>
<path style="fill:#FFEAA7;" d="M160,168c-40.816,0-84.424-6.424-104-16v128c19.576,9.576,63.184,16,104,16s84.424-6.424,104-16V152
	C244.424,161.576,200.816,168,160,168z"/>
<path style="fill:#FCD770;" d="M160,296c40.816,0,84.424-6.424,104-16v-48h-72c-26.512,0-48,21.488-48,48v15.68
	C149.344,295.888,154.696,296,160,296z"/>
<path style="fill:#AFB8C9;" d="M168,288v152c0,26.512,21.488,48,48,48h224c26.512,0,48-21.488,48-48V288H168z"/>
<path style="fill:#8C95A4;" d="M464,288v152c0,26.512-21.488,48-48,48h24c26.512,0,48-21.488,48-48V288H464z"/>
<path style="fill:#ECECEC;" d="M440,336H216c-26.512,0-48-21.488-48-48l0,0c0-26.512,21.488-48,48-48h224c26.512,0,48,21.488,48,48
	l0,0C488,314.512,466.512,336,440,336z"/>
<path style="fill:#B6C1CE;" d="M440,240h-24c26.512,0,48,21.488,48,48s-21.488,48-48,48h24c26.512,0,48-21.488,48-48
	S466.512,240,440,240z"/>
<path style="fill:#AFB8C9;" d="M264,304h-48c-8.84,0-16-7.16-16-16l0,0c0-8.84,7.16-16,16-16h48V304z"/>
<path style="fill:#FEA82F;" d="M424,376l-41.376,41.376C368.136,431.864,348.488,440,328,440l0,0
	c-20.488,0-40.136-8.136-54.624-22.624L264,408l9.376-9.376C287.864,384.136,307.512,376,328,376l0,0
	c20.488,0,40.136,8.136,54.624,22.624L424,440V376z"/>
<ellipse style="fill:#ECECEC;" cx="160" cy="64" rx="136" ry="56"/>
<path style="fill:#B6C1CE;" d="M160,8c-4.048,0-8.04,0.104-12,0.248C217.48,10.752,272,34.736,272,64
	c0,29.256-54.52,53.248-124,55.752c3.96,0.144,7.952,0.248,12,0.248c75.112,0,136-25.072,136-56S235.112,8,160,8z"/>
<path d="M440,232H320V85.576L303.696,61.12C300.496,26.088,239.896,0,160,0S19.504,26.088,16.304,61.12L0,85.576V432
	c0,41.568,82.44,64,160,64c13.832,0,27.552-0.672,40.8-2l-0.016-0.16c4.848,1.376,9.936,2.16,15.216,2.16h224
	c30.872,0,56-25.12,56-56V288C496,257.12,470.872,232,440,232z M160,16c75.432,0,128,25.296,128,48s-52.568,48-128,48
	S32,86.704,32,64S84.568,16,160,16z M160,480c-84.856,0-144-25.296-144-48V90.424l5.528-8.288C38.296,109.216,92.208,128,160,128
	s121.704-18.784,138.472-45.864L304,90.424V232h-32v-92.816l-11.512,5.632C242.496,153.616,200.232,160,160,160
	s-82.496-6.384-100.488-15.184L48,139.184v145.808l4.488,2.192C72.728,297.088,116.936,304,160,304v136
	c0,15.448,6.288,29.456,16.448,39.6C170.992,479.824,165.52,480,160,480z M160,288c-37.184,0-76.112-5.456-96-13.232V163.712
	C86.912,171.128,123.856,176,160,176s73.088-4.872,96-12.288V232h-40C185.128,232,160,257.12,160,288z M480,440
	c0,22.056-17.944,40-40,40H216c-22.056,0-40-17.944-40-40V327.112C186.176,337.52,200.336,344,216,344h176v-16H216
	c-22.056,0-40-17.944-40-40s17.944-40,40-40h224c22.056,0,40,17.944,40,40s-17.944,40-40,40h-16v16h16
	c15.664,0,29.824-6.48,40-16.888V440z"/>
<path d="M464,288h-16c0,4.408-3.584,8-8,8h-40v16h40C453.232,312,464,301.232,464,288z"/>
<path d="M192,288c0,13.232,10.768,24,24,24h56v-48h-56C202.768,264,192,274.768,192,288z M208,288c0-4.408,3.584-8,8-8h8v16h-8
	C211.584,296,208,292.408,208,288z M256,296h-16v-16h16V296z"/>
<path d="M80,88h56V40H80c-13.232,0-24,10.768-24,24S66.768,88,80,88z M120,72h-16V56h16V72z M80,56h8v16h-8c-4.416,0-8-3.592-8-8
	S75.584,56,80,56z"/>
<rect x="216" y="416" width="16" height="16"/>
<rect x="216" y="448" width="16" height="16"/>
<path d="M388.28,392.976C372.176,376.864,350.776,368,328,368s-44.176,8.864-60.28,24.976L252.688,408l15.032,15.024
	C283.824,439.136,305.224,448,328,448s44.176-8.864,60.28-24.976l3.72-3.712l40,40V356.688l-40,40L388.28,392.976z M376.968,411.712
	C363.888,424.8,346.496,432,328,432s-35.888-7.2-48.968-20.288l-3.72-3.712l3.72-3.712C292.112,391.2,309.504,384,328,384
	s35.888,7.2,48.968,20.288L380.68,408L376.968,411.712z M416,395.312v25.376L403.312,408L416,395.312z"/>
<path d="M229.336,200.456C216.952,204.832,187.8,208,160,208s-56.952-3.168-69.336-7.544l-5.328,15.088
	C99.44,220.52,130.144,224,160,224s60.56-3.48,74.664-8.456L229.336,200.456z"/>
<path d="M85.336,255.544c10.152,3.584,28.44,6.392,50.176,7.704l0.968-15.968c-19.72-1.192-37.272-3.808-45.824-6.824
	L85.336,255.544z"/>
<g>
</g>
<g>
</g>
<g>
</g>
<g>
</g>
<g>
</g>
<g>
</g>
<g>
</g>
<g>
</g>
<g>
</g>
<g>
</g>
<g>
</g>
<g>
</g>
<g>
</g>
<g>
</g>
<g>
</g>
</svg>
