<svg id="Filled" height="512" viewBox="0 0 512 512" width="512" xmlns="http://www.w3.org/2000/svg"><path d="m168 24h144v48h-144z" fill="#7da1bb"/><path d="m336 120v24h-144v-24l-24-64h144z" fill="#e2d2c2"/><path d="m272 120h64v336h-64z" fill="#7394ab"/><path d="m312 56-24 64v24h-144v-24l24-64z" fill="#fae8d8"/><path d="m144 120h144v336h-144z" fill="#7da1bb"/><path d="m488 416c0-24-24-56-80-56s-56 56-56 56 0 56 56 56 80-32 80-56z" fill="#deb89a"/><path d="m144 184h144v224h-144z" fill="#fae8d8"/><path d="m189.878 266.573a8 8 0 0 0 -5.878-2.573h-160a8 8 0 0 0 -7.975 8.638l13.644 170.551a40.211 40.211 0 0 0 39.874 36.811h68.915a40.21 40.21 0 0 0 39.873-36.811l13.644-170.551a8 8 0 0 0 -2.097-6.065z" fill="#9ac6e5"/><path d="m171.49 328-9.1 113.91a24.133 24.133 0 0 1 -23.93 22.09h-68.92a24.133 24.133 0 0 1 -23.93-22.09l-9.1-113.91z" fill="#fae8d8"/><path d="m336 352c-24 0-56 24-56 80s56 56 56 56 56 0 56-56-32-80-56-80z" fill="#f5cbaa"/><path d="m474.167 372.893c-11.267-9.532-31.887-20.893-66.167-20.893-13.112 0-24.529 2.815-34.052 8.373-8.806-8.395-19.224-13.838-29.948-15.67v-224.703a7.964 7.964 0 0 0 -.516-2.806h.007l-23.491-62.645v-30.549a8 8 0 0 0 -8-8h-144a8 8 0 0 0 -8 8v30.549l-23.491 62.642h.007a7.964 7.964 0 0 0 -.516 2.809v144h-112a8 8 0 0 0 -7.975 8.638l13.644 170.551a40.21 40.21 0 0 0 39.873 36.811h68.916a40.114 40.114 0 0 0 31.918-16h108.836a56.528 56.528 0 0 0 25.21 24.155 77.839 77.839 0 0 0 31.578 7.845 77.839 77.839 0 0 0 31.578-7.845 59.591 59.591 0 0 0 16.408-11.955 72.864 72.864 0 0 0 24.014 3.8c34.28 0 54.9-11.361 66.167-20.893 13.875-11.74 21.833-27.452 21.833-43.107s-7.958-31.367-21.833-43.107zm-173.711-308.893-18 48h-126.912l18-48zm11.544 14.784 12.456 33.216h-24.912zm-32 49.216v48h-128v-48zm16 0h32v216.7c-11.571 1.976-22.784 8.161-32 17.717zm8-96v16h-128v-16zm-152 160h128v195.413a98.346 98.346 0 0 0 -4.168 12.587h-94.046l10.189-127.362a8 8 0 0 0 -7.975-8.638h-32zm23.334 88-2.56 32h-137.548l-2.56-32zm-36.876 184h-68.916a24.124 24.124 0 0 1 -23.923-22.086l-9.113-113.914h134.988l-9.113 113.914a24.124 24.124 0 0 1 -23.923 22.086zm39.177-16a39.442 39.442 0 0 0 .7-4.811l2.171-27.189h92.384a140.5 140.5 0 0 0 -.89 16 78.773 78.773 0 0 0 1.563 16zm183.235 25.618a62.288 62.288 0 0 1 -24.87 6.382c-1.96 0-48-.546-48-48 0-52.453 29.442-72 48-72s48 19.547 48 72c0 19.75-7.782 33.752-23.13 41.618zm47.13-9.618a60.935 60.935 0 0 1 -14.385-1.621c3.894-8 6.385-17.971 6.385-30.379 0-28.058-7.612-46.962-15.6-59.079 6.613-3.265 14.514-4.921 23.6-4.921 52.453 0 72 29.442 72 48s-19.547 48-72 48z"/></svg>