<svg id="Capa_1" enable-background="new 0 0 512 512" height="512" viewBox="0 0 512 512" width="512" xmlns="http://www.w3.org/2000/svg"><g><g><g clip-rule="evenodd" fill-rule="evenodd"><path d="m115.797 37.021c75.09 0 162.285 42.322 206.705 72.993v53.774c-44.42 30.671-131.614 72.993-206.705 72.993-75.119 0-108.285-42.945-108.285-99.866.001-56.948 33.166-99.894 108.285-99.894z" fill="#ce9875"/><path d="m322.502 110.014h104.373c6.236 0 7.71-2.522 9.411-8.391 4.28-14.91 17.376-26.22 33.59-26.22 19.134 0 34.64 19.644 34.64 34.611 0 10.573-2.494 16.441-6.661 21.203-4.989 3.799-4.763 7.569 0 11.367 4.167 4.762 6.661 10.63 6.661 21.204 0 14.967-15.506 34.611-34.64 34.611-16.271 0-29.764-11.254-33.62-26.334-1.36-5.216-3.203-8.277-9.382-8.277h-104.372l-12.132-26.873z" fill="#f9f7f8"/><path d="m457.234 77.841c3.884-1.588 8.136-2.438 12.643-2.438 19.134 0 34.64 19.644 34.64 34.611 0 10.573-2.494 16.441-6.661 21.203-4.989 3.799-4.763 7.569 0 11.367 4.167 4.762 6.661 10.63 6.661 21.204 0 14.967-15.506 34.611-34.64 34.611-4.507 0-8.787-.85-12.699-2.409 13.437-5.698 23.074-20.41 23.074-32.202 0-10.573-2.494-16.441-6.661-21.204-4.763-3.798-4.989-7.568 0-11.367 4.167-4.762 6.661-10.63 6.661-21.203-.001-11.792-9.61-26.448-23.018-32.173z" fill="#ebe8fa"/><path d="m425.996 445.47c-34.215 16.867-76.735 29.509-121.721 29.509-63.836 0-118.178-23.046-151.485-49.494-5.386-4.252-10.092-2.665-12.813-1.105l-72.483 41.84c-46.063 26.618-84.587-40.337-40.196-69.62 19.616-12.955 19.928-32.656 0-45.44-44.788-28.715-5.867-96.237 40.196-69.648l72.511 41.868c4.365 2.325 6.973 3.515 12.728-1.077 33.335-26.448 87.705-49.522 151.542-49.522 44.986 0 87.535 12.643 121.721 29.509z" fill="#80b4fb"/><path d="m504.517 373.895c0 17.121-31.352 48.359-78.521 71.575-26.93-17.093-44.08-42.804-44.08-71.575 0-28.801 17.149-54.511 44.08-71.604 47.169 23.215 78.521 54.453 78.521 71.604z" fill="#bed8fb"/><path d="m504.517 373.895c0 17.121-31.352 48.359-78.521 71.575-3.601-2.296-7.059-4.734-10.318-7.342 39.317-22.11 64.574-48.87 64.574-64.233 0-15.392-25.257-42.152-64.574-64.263 3.26-2.608 6.718-5.045 10.318-7.342 47.169 23.216 78.521 54.454 78.521 71.605z" fill="#9dc6fb"/><path d="m261.557 381.775c4.677 16.639 20.948 53.405 71.887 49.55 5.272-.397 6.804-3.628 5.244-8.05-4.62-13.125-7.199-27.071-7.795-41.5-.283-6.974-2.239-7.937-7.908-7.88h-55.391c-5.726 0-7.597 2.352-6.037 7.88z" fill="#bed8fb"/><path d="m312.524 430.475c6.237 1.077 13.181 1.445 20.919.85 5.272-.397 6.804-3.628 5.244-8.05-4.62-13.125-7.199-27.071-7.795-41.5-.283-6.974-2.239-7.937-7.908-7.88h-23.642c5.188.028 7.002 1.19 7.285 7.88.596 14.428 3.175 28.375 7.795 41.5 1.135 3.259.596 5.895-1.898 7.2z" fill="#9dc6fb"/></g><path d="m69.337 336.42c-3.628-1.701-5.188-6.038-3.486-9.666 1.729-3.628 6.065-5.188 9.694-3.458l34.526 16.384c3.629 1.701 5.188 6.038 3.487 9.666-1.729 3.628-6.066 5.188-9.695 3.458zm32.514 59.16c3.685-1.587 7.965.113 9.553 3.798 1.587 3.685-.113 7.966-3.799 9.553l-36.425 15.704c-3.686 1.587-7.966-.114-9.553-3.799-1.588-3.713.142-7.994 3.827-9.581zm-34.329-14.486c-3.998-.085-7.172-3.401-7.115-7.398.085-3.997 3.401-7.2 7.399-7.115l42.492.936c3.996.085 7.171 3.401 7.114 7.398-.085 3.997-3.401 7.2-7.398 7.115z" fill="#365e7d"/><path d="m428.745 349.573c-4.024 0-7.284-3.26-7.284-7.285s3.26-7.285 7.284-7.285h5.84c4.025 0 7.285 3.26 7.285 7.285s-3.26 7.285-7.285 7.285z" fill="#365e7d"/><path clip-rule="evenodd" d="m425.996 302.29c-8.164-4.053-16.838-7.823-25.881-11.253-25.285 20.41-42.463 49.295-42.463 82.858 0 33.534 17.178 62.448 42.463 82.829 9.044-3.43 17.717-7.2 25.881-11.254-3.601-2.296-7.059-4.734-10.318-7.342-20.92-16.725-33.761-39.345-33.761-64.233 0-24.917 12.841-47.538 33.761-64.263 3.26-2.608 6.717-5.046 10.318-7.342z" fill="#61a2f9" fill-rule="evenodd"/><path clip-rule="evenodd" d="m322.502 110.014c-7.087-4.876-15.251-10.063-24.265-15.308v84.389c9.015-5.244 17.178-10.432 24.265-15.307z" fill="#c6865c" fill-rule="evenodd"/></g><path d="m173.284 222.069c4.025-.936 8.051 1.559 8.986 5.584.936 4.025-1.56 8.051-5.613 8.986-10.517 2.466-21.061 4.422-31.493 5.726-9.894 1.248-19.729 1.928-29.367 1.928-37.758 0-65.68-10.46-84.729-28.035-21.174-19.531-31.068-47.453-31.068-79.343 0-31.918 9.894-59.84 31.069-79.371 19.049-17.575 46.97-28.035 84.729-28.035 33.505 0 69.222 8.164 102.643 19.956 42.124 14.882 80.732 35.66 106.357 53.065h32.91c4.139 0 7.512 3.345 7.512 7.484 0 4.167-3.374 7.512-7.512 7.512h-27.694v38.75h96.861c5.301 0 8.985 1.559 11.82 4.45 2.523 2.551 3.798 5.698 4.79 9.496 1.531 6.038 5.046 11.282 9.781 14.967 4.564 3.572 10.317 5.726 16.61 5.726 6.804 0 13.153-3.43 18.028-8.306 5.585-5.584 9.1-12.812 9.1-18.822 0-5.783-.596-11.225-4.365-15.79-3.856-3.231-5.869-6.888-5.925-10.999-.057-4.139 1.871-7.852 5.897-11.169 3.798-4.563 4.394-10.035 4.394-15.817 0-6.01-3.515-13.238-9.1-18.822-4.875-4.876-11.225-8.306-18.028-8.306-6.208 0-11.792 2.098-16.271 5.613-4.792 3.713-8.363 9.071-10.121 15.165-1.162 4.054-2.381 7.087-4.903 9.638-2.863 2.892-6.406 4.224-11.707 4.224h-35.179c-4.167 0-7.512-3.345-7.512-7.512 0-4.139 3.345-7.484 7.512-7.484h30.19c1.956 0 6.463-.425 7.172-2.948 2.636-9.156 8.05-17.178 15.335-22.876 7.059-5.499 15.818-8.815 25.484-8.815 11.169 0 21.204 5.244 28.63 12.699 8.305 8.279 13.493 19.59 13.493 29.426 0 6.095-.766 10.97-2.154 15.137-1.247 3.685-4.167 9.184-7.144 11.735 2.977 2.523 5.925 8.135 7.144 11.764 1.389 4.167 2.154 9.043 2.154 15.138 0 9.864-5.188 21.146-13.493 29.424-7.427 7.456-17.461 12.699-28.63 12.699-9.751 0-18.68-3.345-25.824-8.929-7.285-5.727-12.671-13.777-15.052-23.075-.652-2.58-5.188-2.636-7.115-2.636h-97.088c-14.4 9.779-32.882 20.608-53.831 30.87-18.85 9.27-39.6 18-60.973 25.087-3.912 1.275-8.164-.851-9.439-4.79-1.304-3.912.822-8.164 4.762-9.468 20.92-6.916 40.99-15.364 59.075-24.237 19.56-9.581 36.908-19.701 50.628-28.885v-45.893c-24.72-16.584-61.429-36.171-101.568-50.373-31.947-11.282-65.963-19.077-97.654-19.077-33.705 0-58.253 8.986-74.609 24.066-17.829 16.469-26.192 40.536-26.192 68.344 0 27.78 8.363 51.846 26.192 68.316 16.356 15.08 40.905 24.066 74.609 24.066 9.014 0 18.255-.652 27.553-1.814 9.949-1.247 19.956-3.09 29.933-5.414zm255.461 127.702c-4.139 0-7.512-3.345-7.512-7.483s3.373-7.512 7.512-7.512h5.84c4.139 0 7.512 3.373 7.512 7.512s-3.373 7.483-7.512 7.483zm-359.493-13.153c-3.742-1.757-5.357-6.236-3.601-9.949 1.786-3.742 6.236-5.358 9.979-3.572l34.527 16.384c3.741 1.757 5.357 6.208 3.6 9.949-1.786 3.742-6.236 5.33-9.979 3.572zm32.514 58.763c3.798-1.644 8.22.114 9.837 3.912 1.644 3.798-.113 8.221-3.912 9.836l-36.397 15.704c-3.827 1.644-8.221-.113-9.866-3.912-1.615-3.827.143-8.221 3.941-9.865zm-34.244-14.06c-4.111-.085-7.399-3.515-7.314-7.625.085-4.139 3.487-7.398 7.598-7.342l42.492.964c4.11.057 7.399 3.487 7.313 7.597-.086 4.138-3.487 7.427-7.598 7.341zm201.716.029c2.806 9.212 9.24 23.698 22.96 33.165 9.1 6.265 21.629 10.403 38.807 9.468-2.126-6.321-3.798-12.812-5.046-19.474-.879-4.592-2.891-19.843-2.947-23.159zm14.457 45.468c-18.369-12.671-26.22-31.919-29.338-43.003-1.446-5.187-.992-9.297 1.559-12.614 2.524-3.26 6.35-4.762 11.679-4.791h55.361c4.678-.029 8.022.539 11.027 3.232 2.892 2.608 4.167 6.151 4.394 11.849.283 6.86 1.049 13.635 2.268 20.268 1.219 6.492 2.92 12.842 5.103 19.021 1.417 4.054 1.502 8.334-.851 12.076-2.409 3.855-6.491 5.613-10.885 5.953-22.027 1.643-38.298-3.714-50.317-11.991zm228.305-52.923c0 10.97-9.298 25.625-25.512 40.422-14.116 12.869-33.761 26.362-57.175 37.872-18.567 9.156-39.543 17.093-62.051 22.535-20.07 4.875-41.273 7.767-62.986 7.767-17.717 0-34.81-1.758-50.967-4.847-17.49-3.345-33.874-8.277-48.841-14.258-3.855-1.531-5.698-5.896-4.167-9.723 1.53-3.827 5.895-5.697 9.723-4.167 14.088 5.641 29.566 10.29 46.091 13.436 15.194 2.919 31.324 4.535 48.162 4.535 20.608 0 40.621-2.693 59.471-7.256 16.838-4.082 32.797-9.638 47.453-16.073-9.808-7.823-18-16.866-24.152-26.844-8.108-13.181-12.643-27.894-12.643-43.399 0-15.535 4.535-30.246 12.643-43.427 6.151-9.978 14.344-19.021 24.152-26.845-2.977-1.304-5.981-2.58-9.043-3.77-6.69-2.693-13.776-5.216-21.203-7.512-3.968-1.247-6.151-5.443-4.932-9.383s5.442-6.151 9.382-4.933c7.513 2.353 14.939 5.018 22.253 7.938 28.092 11.197 56.694 27.297 78.832 47.48 16.212 14.797 25.51 29.453 25.51 40.452zm-35.576 29.338c13.069-11.934 20.581-22.592 20.581-29.338 0-6.775-7.512-17.434-20.581-29.368-12.415-11.31-29.508-23.188-49.89-33.619-11.196 7.71-20.353 17.008-26.759 27.412-6.661 10.8-10.375 22.847-10.375 35.575 0 12.699 3.714 24.746 10.375 35.547 6.407 10.403 15.563 19.701 26.759 27.411 20.382-10.432 37.475-22.281 49.89-33.62zm-295.996 31.947c3.571 2.069 4.79 6.633 2.721 10.205-2.069 3.571-6.661 4.791-10.232 2.722-4.593-2.637-8.901-5.358-12.926-8.051-4.139-2.807-8.107-5.726-11.878-8.703-2.041-1.616-2.721-1.304-4.818-.255l-72.086 41.613c-18.738 10.8-36.568 8.447-49.777-.737-11.227-7.824-18.852-20.664-20.751-34.186-2.381-16.809 3.742-35.065 22.479-47.424 5.557-3.657 11.509-9.553 11.509-16.696-.028-7.058-5.952-12.7-11.424-16.214-18.964-12.161-25.143-30.36-22.734-47.227.936-6.775 3.316-13.323 6.803-19.105 3.487-5.839 8.136-10.97 13.635-14.911 15.535-11.083 34.13-10.63 50.288-1.162l69.931 40.366c5.924 3.43 3.94 3.288 9.298-.85 18.198-13.947 42.037-26.873 69.875-35.972 25.115-8.193 53.49-13.295 83.935-13.295 7.71 0 15.563.368 23.499 1.105 8.079.765 16.016 1.871 23.782 3.288 4.054.737 6.747 4.649 5.982 8.702-.737 4.054-4.62 6.747-8.702 6.01-7.37-1.361-14.853-2.41-22.422-3.118-7.087-.652-14.486-.992-22.139-.992-28.829 0-55.645 4.819-79.315 12.558-27.27 8.9-50.344 21.628-67.55 35.292-4.394 3.487-7.965 4.79-11.594 4.762-3.628-.028-6.463-1.332-9.553-3.061l-72.511-41.84c-13.068-7.54-25.285-5.924-34.13.397-3.798 2.721-7.029 6.293-9.497 10.375-2.466 4.11-4.138 8.73-4.818 13.493-1.616 11.538 2.75 24.067 16.045 32.571 10.035 6.463 18.227 16.328 18.255 28.829.028 12.529-8.163 22.564-18.17 29.168-13.238 8.732-17.575 21.346-15.96 32.911 1.36 9.496 6.605 18.425 14.514 23.925 8.787 6.094 20.834 7.568 33.789.085l72.058-41.613c2.607-1.701 6.236-2.778 9.326-2.863 3.77-.113 7.994.964 12.274 4.337 3.373 2.693 7.03 5.357 10.942 7.994 3.883 2.635 7.908 5.158 12.047 7.567z"/></g></svg>