<svg id="Capa_1" enable-background="new 0 0 511.545 511.545" height="512" viewBox="0 0 511.545 511.545" width="512" xmlns="http://www.w3.org/2000/svg"><path d="m301.613 59.926h-91.681c-5.585 0-10.112-4.527-10.112-10.112v-32.202c0-5.585 4.527-10.112 10.112-10.112h91.681c5.585 0 10.112 4.527 10.112 10.112v32.202c0 5.585-4.527 10.112-10.112 10.112z" fill="#26a6fe"/><path d="m221.097 59.926h69.353v49.808h-69.353z" fill="#d8ecfe"/><path d="m221.097 59.926h69.353v16.914h-69.353z" fill="#c4e2ff"/><path d="m331.77 280.953v-.153c0-1.294.805-2.434 2.008-2.911 8.631-3.416 14.738-11.832 14.738-21.679v-86.817c0-39.426-31.961-71.388-71.388-71.388h-42.712c-39.426 0-71.388 31.961-71.388 71.388v86.817c0 9.847 6.107 18.263 14.738 21.679 1.203.476 2.008 1.617 2.008 2.911v.152c0 1.332-.855 2.488-2.104 2.953-8.928 3.323-15.289 11.919-15.289 22.004v167.782c0 16.764 13.59 30.354 30.354 30.354h126.073c16.764 0 30.354-13.59 30.354-30.354v-167.781c0-10.085-6.361-18.681-15.289-22.004-1.247-.465-2.103-1.621-2.103-2.953z" fill="#b3dafe"/><path d="m349.163 305.909v167.78c0 16.77-13.59 30.36-30.35 30.36h-21.68c16.76 0 30.35-13.59 30.35-30.36v-167.78c0-5.063-1.52-10.35-5.788-13.379-3.992-2.833-10.04-4.547-9.998-10.254.035-4.668 3.326-7.271 6.814-9.604 5.65-3.78 8.332-9.55 8.332-16.464 0-.003 0-86.82 0-86.82 0-39.42-31.96-71.38-71.39-71.38h21.68c39.42 0 71.38 31.96 71.38 71.38v86.82c0 9.85-6.1 18.26-14.73 21.68-1.21.48-2.01 1.62-2.01 2.91v.15c0 1.34.85 2.49 2.1 2.96 8.93 3.321 15.29 11.921 15.29 22.001z" fill="#8ac9fe"/><path d="m348.521 169.394v66.852h-185.496v-66.852c0-5.642.658-11.123 1.897-16.384h181.702c1.239 5.261 1.897 10.742 1.897 16.384z" fill="#fff2e2"/><path d="m348.523 169.399v66.85h-21.68v-66.86c0-5.64-.65-11.12-1.89-16.38h21.67c1.248 5.312 1.9 10.92 1.9 16.39z" fill="#fee8c7"/><path d="m343.805 280.797c7.602-5.717 12.212-14.707 12.212-24.586 0 0 .004-86.817.004-86.817 0-6.267-.656-11.99-2.096-18.104-.024-.101-.068-.191-.095-.29-6.7-27.934-28.292-50.131-55.88-57.693v-25.881h3.664c9.711 0 17.612-7.9 17.612-17.612v-32.202c-.001-9.712-7.901-17.612-17.613-17.612h-91.681c-9.711 0-17.612 7.9-17.612 17.612v32.202c0 9.711 7.9 17.612 17.612 17.612h3.664v25.881c-27.587 7.562-49.18 29.759-55.88 57.693-.028.099-.071.189-.096.293-1.413 6.002-2.096 11.964-2.096 18.101l.004 86.817c0 9.88 4.61 18.87 12.212 24.586-7.914 5.739-12.858 15.057-12.858 25.112v29.469c0 4.142 3.358 7.5 7.5 7.5s7.5-3.358 7.5-7.5v-10.218h33.173c4.142 0 7.5-3.358 7.5-7.5s-3.358-7.5-7.5-7.5h-33.173v-4.25c0-6.641 4.182-12.659 10.406-14.975 4.179-1.556 6.987-5.567 6.987-9.982v-.153c0-4.382-2.648-8.261-6.749-9.884-6.073-2.404-9.998-8.176-9.998-14.705v-12.465h104.41c4.142 0 7.5-3.358 7.5-7.5s-3.358-7.5-7.5-7.5h-103.777v-68.236h169.856v68.236h-31.123c-4.142 0-7.5 3.358-7.5 7.5s3.358 7.5 7.5 7.5h31.123v12.465c0 6.529-3.925 12.301-9.999 14.705-4.099 1.623-6.748 5.502-6.748 9.884v.152c0 4.415 2.808 8.426 6.988 9.982 6.224 2.316 10.405 8.334 10.405 14.975v4.25h-90.773c-4.142 0-7.5 3.358-7.5 7.5s3.358 7.5 7.5 7.5h90.773v26.593h-31.768c-4.142 0-7.5 3.358-7.5 7.5s3.358 7.5 7.5 7.5h31.768v16.92h-12.455c-4.142 0-7.5 3.358-7.5 7.5s3.358 7.5 7.5 7.5h12.455v36.266h-131.352c-4.142 0-7.5 3.358-7.5 7.5s3.358 7.5 7.5 7.5h131.352v23.752c0 12.602-10.252 22.854-22.854 22.854h-126.072c-12.602 0-22.854-10.252-22.854-22.854v-65.346h33.705c4.142 0 7.5-3.358 7.5-7.5s-3.358-7.5-7.5-7.5h-33.705v-23.134c0-4.142-3.358-7.5-7.5-7.5s-7.5 3.358-7.5 7.5v103.479c0 20.873 16.981 37.854 37.854 37.854h126.072c20.873 0 37.854-16.981 37.854-37.854v-167.779c0-10.056-4.945-19.374-12.858-25.113zm-136.484-230.983v-32.202c0-1.44 1.172-2.612 2.612-2.612h91.681c1.44 0 2.612 1.172 2.612 2.612v32.202c0 1.44-1.172 2.612-2.612 2.612h-91.681c-1.44 0-2.612-1.172-2.612-2.612zm21.276 17.612h54.353v23.309c-1.923-.141-52.429-.141-54.353 0zm-53.419 78.084c9.48-23.427 32.453-40.004 59.239-40.004h42.712c26.786 0 49.759 16.577 59.239 40.004z"/><path d="m260.609 351.753h-63.887c-4.142 0-7.5 3.358-7.5 7.5s3.358 7.5 7.5 7.5h63.887c4.142 0 7.5-3.358 7.5-7.5s-3.358-7.5-7.5-7.5z"/><path d="m243.389 400.846c0 4.142 3.358 7.5 7.5 7.5h40.562c4.142 0 7.5-3.358 7.5-7.5s-3.358-7.5-7.5-7.5h-40.562c-4.142 0-7.5 3.358-7.5 7.5z"/></svg>