<svg height="512" viewBox="0 0 56 58" width="512" xmlns="http://www.w3.org/2000/svg"><g id="Page-1" fill="none" fill-rule="evenodd"><g id="021---Salami" fill-rule="nonzero"><path id="Shape" d="m5.1 10.78-3.43-1.13c-.70048025-.23609006-1.25662242-.77629297-1.51297634-1.46961379s-.18541938-1.46538403.19297634-2.10038621c.35656554-.59006109.94420294-1.00358371 1.62-1.14l.88-.18c.96169896-.1967493 1.7132507-.94830104 1.91-1.91l.18-.88c.09389511-.47408182.32719129-.90933588.67-1.25.13795532-.1454067.29626971-.27003717.47-.37.63444757-.38113455 1.40763816-.45356177 2.10183151-.19688523.69419336.25667653 1.2342814.81468577 1.46816849 1.51688523l1.14 3.43z" fill="#d25627"/><path id="Shape" d="m33.5 20.77 4.24 4.24-12.73 12.73-17.74-17.74c-3.51279236-3.5163276-3.51279236-9.2136724 0-12.73.98565478-.99096891 2.19186721-1.73457146 3.52-2.17 3.2334445-1.07421428 6.7962509-.23476912 9.21 2.17l5.3 5.3z" fill="#f29c1f"/><path id="Shape" d="m20 10.667c1.9573788-.1559315 3.8875025.5359996 5.3 1.9l8.2 8.2c-1.494494-1.4419324-3.5579048-2.1358553-5.62-1.89-1.9963705.2115999-3.8804539 1.028036-5.4 2.34-.3944871.3248496-.9717926.2944651-1.33-.07l-6.77-6.77c-.2009497-.2022216-.3060353-.4805973-.2888466-.7651652.0171886-.284568.1550173-.548271.3788466-.7248348 1.5641085-1.3029614 3.499119-2.0797648 5.53-2.22" fill="#ecf0f1"/><ellipse id="Oval" cx="31.375" cy="31.375" fill="#c03a2b" rx="9.001" ry="7.502" transform="matrix(.707 -.707 .707 .707 -12.996 31.375)"/><g fill="#fb7b76"><circle id="Oval" cx="26.779" cy="33.847" r="1"/><circle id="Oval" cx="34.557" cy="34.554" r="1"/><circle id="Oval" cx="30.314" cy="35.969" r="1"/><circle id="Oval" cx="28.9" cy="28.897" r="1"/><circle id="Oval" cx="33.85" cy="26.776" r="1"/><circle id="Oval" cx="35.971" cy="30.312" r="1"/><circle id="Oval" cx="31.729" cy="31.726" r="1"/></g><path id="Shape" d="m21.53 42.12c-.5059687-.0808647-1.017611-.1209935-1.53-.12-.5157071-.0010012-1.0306728.0391259-1.54.12-.4156755.0524534-.8268296.1360213-1.23.25-1.3254863.3417201-2.558516.9736051-3.61 1.85-.5115461.428995-.9683168.9193519-1.36 1.46-.8105107 1.1095344-1.2513293 2.4459843-1.26 3.82-.0015857.8165428.158138 1.6253566.47 2.38-4.24-.6-7.47-3.68-7.47-7.38 0-4.14 4.03-7.5 9-7.5 3.97 0 7.34 2.15 8.53 5.12z" fill="#c03a2b"/><circle id="Oval" cx="8" cy="43" fill="#fb7b76" r="1"/><circle id="Oval" cx="9" cy="47" fill="#fb7b76" r="1"/><circle id="Oval" cx="13" cy="41" fill="#fb7b76" r="1"/><path id="Shape" d="m26 50.5c.003854 1.280562.3903997 2.5307412 1.11 3.59-1.8680972 1.90779-4.4403762 2.9605793-7.11 2.91-3.97 0-7.34-2.15-8.53-5.12-.311862-.7546434-.4715857-1.5634572-.47-2.38.0086707-1.3740157.4494893-2.7104656 1.26-3.82.3916832-.5406481.8484539-1.031005 1.36-1.46 1.051484-.8763949 2.2845137-1.5082799 3.61-1.85.4031704-.1139787.8143245-.1975466 1.23-.25.5093272-.0808741 1.0242929-.1210012 1.54-.12.512389-.0009935 1.0240313.0391353 1.53.12 2.5652708.2932338 4.8813036 1.6733854 6.36 3.79-1.1979413 1.2292847-1.8750182 2.8736143-1.89 4.59z" fill="#d25627"/><circle id="Oval" cx="15" cy="48" fill="#fb7b76" r="1"/><circle id="Oval" cx="20" cy="54" fill="#fb7b76" r="1"/><circle id="Oval" cx="16" cy="52" fill="#fb7b76" r="1"/><circle id="Oval" cx="20" cy="46" fill="#fb7b76" r="1"/><circle id="Oval" cx="25" cy="48" fill="#fb7b76" r="1"/><circle id="Oval" cx="24" cy="52" fill="#fb7b76" r="1"/><circle id="Oval" cx="20" cy="50" fill="#fb7b76" r="1"/><path id="Shape" d="m42.86 54.15c-1.8263024 2.4991841-4.765914 3.9390702-7.86 3.85-3.1173326.0933125-6.076166-1.3729789-7.89-3.91-.7196003-1.0592588-1.106146-2.309438-1.11-3.59.0149818-1.7163857.6920587-3.3607153 1.89-4.59 1.8680972-1.90779 4.4403762-2.9605793 7.11-2.91 1.4241709-.008426 2.834361.2811058 4.14.85-.7394657 1.0738265-1.1368635 2.3461967-1.14 3.65.1335755 2.9929101 2.0490068 5.6138192 4.86 6.65z" fill="#c03a2b"/><circle id="Oval" cx="30" cy="49" fill="#fb7b76" r="1"/><circle id="Oval" cx="35" cy="55" fill="#fb7b76" r="1"/><circle id="Oval" cx="31" cy="53" fill="#fb7b76" r="1"/><circle id="Oval" cx="35" cy="47" fill="#fb7b76" r="1"/><circle id="Oval" cx="39" cy="53" fill="#fb7b76" r="1"/><circle id="Oval" cx="35" cy="51" fill="#fb7b76" r="1"/><path id="Shape" d="m56 47.5c0 4.14-4.03 7.5-9 7.5-1.4241709.008426-2.834361-.2811058-4.14-.85-2.8109932-1.0361808-4.7264245-3.6570899-4.86-6.65.0031365-1.3038033.4005343-2.5761735 1.14-3.65 1.8263024-2.4991841 4.765914-3.9390702 7.86-3.85 4.97 0 9 3.36 9 7.5z" fill="#d25627"/><circle id="Oval" cx="42" cy="46" fill="#fb7b76" r="1"/><circle id="Oval" cx="47" cy="52" fill="#fb7b76" r="1"/><circle id="Oval" cx="43" cy="50" fill="#fb7b76" r="1"/><circle id="Oval" cx="47" cy="44" fill="#fb7b76" r="1"/><circle id="Oval" cx="52" cy="46" fill="#fb7b76" r="1"/><circle id="Oval" cx="51" cy="50" fill="#fb7b76" r="1"/><circle id="Oval" cx="47" cy="48" fill="#fb7b76" r="1"/></g></g></svg>