<svg id="Layer_1" enable-background="new 0 0 256 256" height="512" viewBox="0 0 256 256" width="512" xmlns="http://www.w3.org/2000/svg"><g id="Layer_18"><g><path d="m59.8 197.2 134.3.2-14.6-50.8-134.3-.3z" fill="#fc657e"/><path d="m134.4 197.4 9.9 34.7 49.8-34.7z" fill="#ef4460"/><path d="m253.5 65.2h-223.4l-27.6 88.6h44.8l-2.1-7.5 134.3.3 2.1 7.5 44.3-.3z" fill="#5290db"/><g fill="#edf4fc"><path d="m67.1 105.8c-2.3-1.1-4.6-2-7-2.7-1.7-.5-3.4-1.2-5.1-1.9-.9-.4-1.7-1-2.3-1.7-.5-.7-.7-1.5-.7-2.3-.1-1.1.3-2.1 1.1-2.9 1-.8 2.3-1.2 3.6-1.1 1.4-.1 2.8.3 4 1.2.9.8 1.5 1.8 1.8 3 .2 1.3 1.4 2.2 2.7 2.2h6c1.5 0 2.7-1.2 2.7-2.7 0-.1 0-.2 0-.3-.4-3.8-2.3-7.2-5.3-9.6-3-2.5-6.9-3.7-11.8-3.7-2.8-.1-5.7.5-8.3 1.7-2.4 1.1-4.4 2.8-5.8 5s-2.1 4.8-2 7.4c-.1 2.8.7 5.6 2.3 7.9 1.3 1.9 3.1 3.4 5.2 4.4 2.2 1 4.6 1.9 6.9 2.7 1.8.5 3.5 1.2 5.2 1.9.9.4 1.8 1.1 2.5 1.9.5.7.8 1.6.7 2.5.1 1.1-.4 2.3-1.2 3.1-1 .9-2.4 1.3-3.7 1.2-1.2 0-2.4-.2-3.4-.8-1.6-.9-2.7-2.5-2.9-4.3-.1-1.4-1.3-2.4-2.7-2.4h-5.9c-1.5 0-2.7 1.2-2.7 2.7v.2c.2 2.7 1.2 5.3 2.8 7.6 1.6 2.2 3.8 4 6.3 5.1 2.7 1.2 5.7 1.9 8.7 1.8 3 .1 6-.6 8.7-2 2.3-1.2 4.2-3.1 5.5-5.3 1.2-2.1 1.8-4.5 1.8-7 .1-2.9-.7-5.7-2.3-8.1-1.4-2-3.3-3.6-5.4-4.7z"/><path d="m111.1 84h-5.6c-1.5 0-2.7 1.2-2.7 2.7v25.8c0 3.5-.7 6-2 7.5-1.5 1.5-3.5 2.3-5.6 2.2-2.1.1-4.2-.6-5.8-2.2-1.4-1.5-2.1-4-2.1-7.5v-25.8c0-1.5-1.2-2.7-2.7-2.7h-5.6c-1.5 0-2.7 1.2-2.7 2.7v25.8c0 6.6 1.7 11.7 5.1 15.1 3.4 3.5 8 5.2 13.6 5.2s10.2-1.8 13.6-5.2c3.4-3.5 5.1-8.5 5.1-15.1v-25.8c.2-1.5-1.1-2.7-2.6-2.7z"/><path d="m133.4 84h-13.7c-1.5 0-2.7 1.2-2.7 2.7v43c0 1.5 1.2 2.7 2.7 2.7h5.6c1.5 0 2.7-1.2 2.7-2.7v-14.6h5.4c5.4 0 9.7-1.4 12.7-4.1 3.1-2.8 4.7-6.6 4.7-11.4 0-4.7-1.5-8.6-4.5-11.4-2.9-2.8-7.3-4.2-12.9-4.2zm-5.4 10h4.9c2.6 0 4.5.5 5.4 1.4 1 1.1 1.5 2.6 1.4 4.2.1 1.5-.4 3-1.4 4.1-.9.9-2.8 1.4-5.4 1.4h-4.9z"/><path d="m178.3 84h-23.7c-1.5 0-2.7 1.2-2.7 2.7v43c0 1.5 1.2 2.7 2.7 2.7h23.7c1.5 0 2.7-1.2 2.7-2.7v-4.5c0-1.5-1.2-2.7-2.7-2.7h-15.5v-9.6h13.6c1.5 0 2.7-1.2 2.7-2.7v-4.3c0-1.5-1.2-2.7-2.7-2.7h-13.6v-9.3h15.5c1.5 0 2.7-1.2 2.7-2.7v-4.5c0-1.5-1.2-2.7-2.7-2.7z"/><path d="m216.8 128.2-9.6-14.5c6.1-1.9 10.1-7.8 9.7-14.2.2-4.2-1.5-8.3-4.5-11.3-3-2.8-7.3-4.3-12.9-4.3h-14.2c-1.5 0-2.7 1.2-2.7 2.7v43c0 1.5 1.2 2.7 2.7 2.7h5.6c1.5 0 2.7-1.2 2.7-2.7v-14.9h1.8l10.4 16.3c.5.8 1.4 1.3 2.3 1.3h6.3c1.5 0 2.7-1.2 2.7-2.7.2-.4 0-.9-.3-1.4zm-23.1-34h5.4c5.9 0 6.7 2.7 6.7 5.6s-.8 5.6-6.7 5.6h-5.4z"/></g><path d="m224.2 179h-2.1v-2.1c0-1.5-1.3-2.8-2.8-2.8s-2.8 1.3-2.8 2.8v2.1h-2.1c-1.5 0-2.8 1.3-2.8 2.8s1.3 2.8 2.8 2.8h2.1v2.1c0 1.5 1.3 2.8 2.8 2.8s2.8-1.3 2.8-2.8v-2.1h2.1c1.5 0 2.8-1.3 2.8-2.8s-1.3-2.8-2.8-2.8z" fill="#70d6f9"/><path d="m42.3 43c-4-.7-7.1-3.8-7.9-7.7 0-.1-.1-.2-.2-.1-.1 0-.1.1-.1.1-.8 4-3.9 7-7.9 7.7-.1 0-.2.1-.1.2 0 .1.1.1.1.1 4 .7 7.1 3.8 7.9 7.7 0 .1.1.2.2.1.1 0 .1-.1.1-.1.8-4 3.9-7 7.9-7.7.1 0 .2-.1.1-.2 0 0 0-.1-.1-.1z" fill="#f5c84c"/><circle cx="61" cy="35" fill="#ef4460" r="3"/><circle cx="35" cy="182" fill="#87d147" r="3"/><path d="m93.7 174c-.9-1.2-2-2.2-3.4-2.9-1.5-.7-3.1-1.3-4.8-1.8-1.2-.4-2.4-.8-3.6-1.3-.7-.3-1.4-.8-1.9-1.4s-.7-1.4-.7-2.2c-.1-1 .3-2 1.1-2.7.9-.7 2-1 3.1-1 1.2-.1 2.4.3 3.3 1.1.8.7 1.3 1.6 1.5 2.6.1.5.5.8 1 .8h4.2c.6 0 1-.4 1-1v-.1c-.3-2.4-1.5-4.6-3.4-6.1-2.2-1.7-4.9-2.5-7.6-2.4-1.8 0-3.7.3-5.4 1.1-1.5.7-2.8 1.8-3.6 3.1-.9 1.4-1.3 3-1.3 4.6-.1 1.8.4 3.5 1.4 5 .9 1.2 2 2.1 3.3 2.8 1.5.7 3.1 1.3 4.7 1.8 1.3.4 2.5.8 3.7 1.4.8.4 1.5.9 2 1.5.5.7.8 1.5.7 2.3 0 1-.3 2-1.1 2.8-.9.8-2 1.2-3.2 1.1-1 0-2-.2-2.8-.7-1.4-.8-2.3-2.1-2.5-3.7-.1-.5-.5-.9-1-.9h-4.1c-.6 0-1 .4-1 1v.1c.1 1.7.8 3.4 1.8 4.8 1.1 1.4 2.5 2.6 4.1 3.3 1.8.8 3.7 1.2 5.7 1.2 1.9.1 3.9-.4 5.6-1.3 1.5-.8 2.7-1.9 3.5-3.4.8-1.4 1.2-2.9 1.1-4.4.1-1.8-.4-3.6-1.4-5.1z"/><path d="m124.3 186.5-11-29.3c-.1-.4-.5-.6-.9-.6h-4.4c-.4 0-.8.3-.9.6l-11.1 29.3c-.2.5.1 1.1.6 1.3.1 0 .2.1.4.1h4.2c.4 0 .8-.3.9-.7l2.3-6.2h11.6l2.3 6.2c.1.4.5.7.9.7h4.2c.6 0 1-.4 1-1 0-.2 0-.3-.1-.4zm-10.1-10.6h-8.1l4-11.1z"/><path d="m141.7 182.9h-9.6v-25.9c0-.6-.4-1-1-1h-3.9c-.6 0-1 .4-1 1v29.9c0 .6.4 1 1 1h14.4c.6 0 1-.4 1-1v-3c.1-.6-.3-1-.9-1z"/><path d="m162.1 161.1c.6 0 1-.4 1-1v-3.1c0-.6-.4-1-1-1h-16.5c-.6 0-1 .4-1 1v29.9c0 .6.4 1 1 1h16.5c.6 0 1-.4 1-1v-3.1c0-.6-.4-1-1-1h-11.6v-8.4h10.4c.6 0 1-.4 1-1v-3c0-.6-.4-1-1-1h-10.4v-8.2z"/><path d="m253.5 62.7h-223.4c-1.1 0-2.1.7-2.4 1.8l-27.6 88.6c-.4 1.3.3 2.7 1.6 3.1.2.1.5.1.7.1h43l11.9 41.6c.3 1.1 1.3 1.8 2.4 1.8l72.7.1 9.4 32.9c.4 1.3 1.8 2.1 3.1 1.7.3-.1.5-.2.7-.4l49.8-34.6c.9-.6 1.3-1.7 1-2.7l-11.6-40.2 41-.2c1.1 0 2-.7 2.4-1.8l27.7-88.5c.4-1.3-.3-2.7-1.6-3.1-.3-.1-.5-.2-.8-.2zm-107.8 165.3-8-28.1h48.4zm-84-33.3-13.2-45.9 129.1.2 13.2 45.9zm162.4-43.3-40.6.2-1.6-5.7c-.3-1.1-1.3-1.8-2.4-1.8l-134.3-.2c-1.4 0-2.5 1.1-2.5 2.5 0 .2 0 .5.1.7l1.2 4.3h-38.1l26-83.6h218.2z"/><path d="m125.2 23.9v14.8c0 1.4 1.1 2.5 2.5 2.5s2.5-1.1 2.5-2.5v-14.8c0-1.4-1.1-2.5-2.5-2.5-1.3 0-2.5 1.2-2.5 2.5z"/><path d="m115.6 44.8c1.2-.7 1.6-2.2.9-3.4l-7.4-12.8c-.7-1.2-2.2-1.6-3.4-.9s-1.6 2.2-.9 3.4l7.4 12.8c.7 1.2 2.2 1.6 3.4.9z"/><path d="m93.1 43.1c-1.2-.7-2.7-.3-3.4.9s-.3 2.7.9 3.4l12.8 7.4c1.2.7 2.7.3 3.4-.9s.3-2.7-.9-3.4z"/><path d="m152.6 53.9 12.8-7.4c1.2-.7 1.6-2.2.9-3.4s-2.2-1.6-3.4-.9l-12.8 7.4c-1.2.7-1.6 2.2-.9 3.4s2.2 1.6 3.4.9z"/><path d="m149.9 27.1c-1.2-.7-2.7-.3-3.4.9l-7.4 12.8c-.7 1.2-.3 2.7.9 3.4s2.7.3 3.4-.9l7.4-12.8c.7-1.2.3-2.7-.9-3.4z"/><path d="m47 112c.6.3 1.3.6 2.1.9h-5.6c-2.9 0-5.2 2.3-5.2 5.2v.5c.8 9.4 8.8 16.8 20.4 16.8 8.1 0 14.9-3.8 17.5-11.1 3 6.4 9.5 11.1 18.9 11.1 9.6 0 16.4-4.8 19.4-12.3v6.6c0 2.9 2.3 5.2 5.2 5.2h5.6c2.9 0 5.2-2.3 5.2-5.2v-12.1h2.9c6.1 0 11.9-1.6 16-6.3v18.4c0 2.9 2.3 5.2 5.2 5.2h23.7c1.3 0 2.6-.5 3.6-1.4 1 .9 2.2 1.4 3.6 1.4h5.6c2.9 0 5.2-2.3 5.2-5.2v-9.2l7.7 12c1 1.5 2.6 2.4 4.4 2.4h6.3c2.9 0 5.2-2.3 5.2-5.2 0-1-.3-2-.9-2.9l-8-12.1c5.2-2.8 8.5-8 8.5-15.3 0-10-6.6-18-19.9-18h-14.2c-1.3 0-2.6.5-3.6 1.4-1-.9-2.2-1.4-3.6-1.4h-23.7c-2.9 0-5.2 2.3-5.2 5.2v1.1c-.4-.5-.9-1-1.3-1.4-3.4-3.2-8.3-4.9-14.6-4.9h-13.7c-1.7 0-3.3.9-4.3 2.3-1-1.4-2.6-2.3-4.3-2.3h-5.6c-2.9 0-5.2 2.3-5.2 5.2v25.8c0 5.9-1.9 7.2-5.2 7.2-3.5 0-5.3-1.4-5.3-7.2v-25.7c0-2.9-2.3-5.2-5.2-5.2h-5.6c-2.9 0-5.2 2.3-5.2 5.2v2.9c-3.2-5.2-8.8-8.7-17.2-8.7-11.9 0-18.6 7.5-18.6 16.5-.1 6.2 3.4 12 9 14.6zm133.2-9.7c-1-1-2.3-1.6-3.8-1.6h-11.1v-4.3h13c.7 0 1.3-.1 1.9-.4zm0 11.5v6.6c-.6-.2-1.3-.4-1.9-.4h-13v-4.6h11.1c1.5 0 2.9-.6 3.8-1.6zm5-27.1c0-.1.1-.2.2-.2h14.2c10 0 14.9 5.3 14.9 13 0 6-2.9 10-8.1 11.8-1.3.5-2 1.9-1.5 3.2.1.2.2.4.3.6l9.6 14.5v.2c0 .1-.1.1-.2.1h-6.3c-.1 0-.1 0-.2-.1l-10.4-16.3c-.5-.7-1.3-1.2-2.1-1.2h-1.8c-1.4 0-2.5 1.1-2.5 2.5v14.9c0 .1-.1.2-.2.2h-5.6c-.1 0-.2-.1-.2-.2v-43zm-30.8 0c0-.1.1-.2.2-.2h23.7c.1 0 .2.1.2.2v4.5c0 .1-.1.2-.2.2h-15.5c-1.4 0-2.5 1.1-2.5 2.5v9.3c0 1.4 1.1 2.5 2.5 2.5h13.6c.1 0 .2.1.2.2v4.3c0 .1-.1.2-.2.2h-13.6c-1.4 0-2.5 1.1-2.5 2.5v9.6c0 1.4 1.1 2.5 2.5 2.5h15.5c.1 0 .2.1.2.2v4.5c0 .1-.1.2-.2.2h-23.7c-.1 0-.2-.1-.2-.2zm-34.9 0c0-.1.1-.2.2-.2h13.7c10.3 0 14.9 5.3 14.9 13.1 0 8.6-5.8 13-14.9 13h-5.4c-1.4 0-2.5 1.1-2.5 2.5v14.6c0 .1-.1.2-.2.2h-5.6c-.1 0-.2-.1-.2-.2zm-40.6 0c0-.1.1-.2.2-.2h5.6c.1 0 .2.1.2.2v25.8c0 7.4 3 12.2 10.3 12.2 7.2 0 10.2-5 10.2-12.2v-25.8c0-.1.1-.2.2-.2h5.6c.1 0 .2.1.2.2v25.8c0 11.9-6.5 17.8-16.3 17.8-9.7 0-16.2-5.9-16.2-17.8zm-5 14.7v6.8c-1.5-2-3.5-3.5-5.7-4.6-.9-.4-1.9-.9-3-1.3h5.9c1 0 2-.3 2.8-.9zm-17.2-15.5c8.8 0 13.8 4.9 14.6 11.1 0 .1 0 .1-.1.2 0 0-.1.1-.2.1h-6c-.1 0-.2-.1-.2-.2-.6-3.4-3.5-6.3-8.2-6.3-4.2 0-7.2 2.2-7.2 6.4 0 2.4 1 4.7 4.4 6.3 3.9 1.8 7.6 2.4 12.1 4.5 3.7 1.8 6.2 5.2 6.2 10.4 0 6.4-4.8 11.8-13.5 11.8-9.1 0-14.8-5.5-15.4-12.2 0-.1 0-.1.1-.2 0 0 .1-.1.2-.1h5.9c.1 0 .2.1.2.2.4 3.9 3.6 7.4 8.9 7.4 4.9 0 7.3-2.9 7.3-6.7 0-2.5-1-4.9-4.6-6.7-3.6-1.7-7.6-2.4-12.1-4.6-3.6-1.7-6.1-5-6.1-10 .1-7.2 5.8-11.4 13.7-11.4zm5 15.2c-.3-.1-.6-.2-.9-.3-1.6-.5-3.2-1.1-4.8-1.8-.5-.2-1-.6-1.4-1-.1-.2-.1-.5-.1-.7s0-.8.2-1c.6-.4 1.3-.5 2-.5.8-.1 1.6.1 2.3.6.5.4.9 1 1 1.6.2 1.2.8 2.3 1.7 3.1zm-8.6 13.3c.4.1.8.3 1.2.4 1.6.5 3.3 1.1 4.8 1.8.6.3 1.2.7 1.6 1.2.3.7.2 1.6-.3 2.2-.1.1-.6.4-1.9.4-2.4 0-3.7-1.3-3.9-2.9-.1-1.1-.7-2.2-1.5-3.1z"/><path d="m128 107.5h4.9c5.8 0 9.3-2.2 9.3-8 0-5.9-3.4-8-9.3-8h-4.9c-1.4 0-2.5 1.1-2.5 2.5v11c0 1.4 1.1 2.5 2.5 2.5zm2.5-11h2.4c3.9 0 4.3.7 4.3 3 0 2.2-.5 3-4.3 3h-2.4z"/><path d="m193.7 107.9h5.4c6.1 0 9.2-2.7 9.2-8.1s-3.1-8.1-9.2-8.1h-5.4c-1.4 0-2.5 1.1-2.5 2.5v11.2c0 1.4 1.1 2.5 2.5 2.5zm2.5-11.2h2.9c4.2 0 4.2 1.3 4.2 3.1s0 3.1-4.2 3.1h-2.9z"/></g></g></svg>